
<svg xmlns="http://www.w3.org/2000/svg" version="1.1" xmlns:xlink="http://www.w3.org/1999/xlink" preserveAspectRatio="none" x="0px" y="0px" width="3840px" height="2160px" viewBox="0 0 3840 2160">
<defs>
<linearGradient id="Gradient_1" gradientUnits="userSpaceOnUse" x1="2211.95" y1="15.512499999999989" x2="2211.95" y2="332.08750000000003" spreadMethod="pad">
<stop  offset="0%" stop-color="#2B2E44"/>

<stop  offset="100%" stop-color="#3C4059"/>
</linearGradient>

<radialGradient id="Gradient_2" gradientUnits="userSpaceOnUse" cx="0" cy="0" r="139.24421498306492" fx="0" fy="0" gradientTransform="matrix( 0.9659288180579573, -0.258807879410882, 0.258807879410882, 0.9659288180579573, 361.7,114.2) " spreadMethod="pad">
<stop  offset="62.745098039215684%" stop-color="#A85252" stop-opacity="0"/>

<stop  offset="100%" stop-color="#A85252"/>
</radialGradient>

<radialGradient id="Gradient_3" gradientUnits="userSpaceOnUse" cx="0" cy="0" r="728.2625" fx="0" fy="0" gradientTransform="matrix( 1, 0, 0, 0.43938483719812566, 511.55,378.2) " spreadMethod="pad">
<stop  offset="0%" stop-color="#9B7371" stop-opacity="0.8470588235294118"/>

<stop  offset="100%" stop-color="#703F42" stop-opacity="0.8470588235294118"/>
</radialGradient>

<radialGradient id="Gradient_4" gradientUnits="userSpaceOnUse" cx="0" cy="0" r="111.90901787277913" fx="0" fy="0" gradientTransform="matrix( 0.7092815352042086, -0.7049253179013796, 0.5963549789693338, 0.6000410089948045, 74.25,59.1) " spreadMethod="pad">
<stop  offset="0%" stop-color="#884B4B" stop-opacity="0.8470588235294118"/>

<stop  offset="100%" stop-color="#5A3C3D" stop-opacity="0.8470588235294118"/>
</radialGradient>

<radialGradient id="Gradient_5" gradientUnits="userSpaceOnUse" cx="0" cy="0" r="171.58169746872778" fx="0" fy="0" gradientTransform="matrix( 0.9659392723411369, 0.25876885853802833, -0.14686881160266474, 0.5484996441252296, 994.65,67.75) " spreadMethod="pad">
<stop  offset="0%" stop-color="#884B4B" stop-opacity="0.8470588235294118"/>

<stop  offset="100%" stop-color="#5A3C3D" stop-opacity="0.8470588235294118"/>
</radialGradient>

<g id="Layer0_0_MEMBER_0_MEMBER_0_FILL">
<path fill="url(#Gradient_1)" stroke="none" d="
M 1117.45 615.35
L 1117.45 -12.65 -48.7 -12.65 -48.7 615.35 1117.45 615.35 Z"/>
</g>

<g id="Layer0_0_MEMBER_0_MEMBER_1_FILL">
<path fill="url(#Gradient_2)" stroke="none" d="
M 353.3 128.6
Q 336.6 157.65 345.3 190.05 354 222.45 382.95 239.25 412.05 256.05 444.45 247.35 476.9 238.65 493.6 209.6 510.45 180.55 501.75 148.15 493.05 115.75 463.95 98.95 435 82.15 402.55 90.85 370.15 99.55 353.3 128.6 Z"/>
</g>

<g id="nuage1_0_Layer0_0_MEMBER_0_FILL">
<path fill="#595970" fill-opacity="0.8" stroke="none" d="
M 124.5 48.25
Q 125.55 46.9 126.55 44.55 127.65 41.95 127.65 40.4 127.65 34.05 121.85 28.9 114.6 22.45 101.6 22.45 92.75 23.5 91.6 23.75 90.75 12.75 80.45 6.15 70.85 0 57.35 0 43.25 0 33.15 6.9 23.1 13.8 23.1 23.45 23.1 25.9 24.05 28.95 24.9 31.7 25.75 32.7 18.1 33.1 13.25 36.9 8.6 40.5 8.6 45.3 8.6 46.3 9.1 48.4 4 49.45 1.6 51.2 0 52.35 0 53.2 0 56.9 13.55 59.1 29.3 61.65 66.6 62.8 100.6 62.5 118 59.6 133.05 57.05 133.05 53.2 133.05 51.8 130.6 50.3 127.95 48.7 124.5 48.25
M 74.95 43.65
L 76 43.2
Q 76.15 43.7 74.95 43.65 Z"/>
</g>

<g id="nuage2_0_Layer0_0_MEMBER_0_FILL">
<path fill="#595970" fill-opacity="0.8" stroke="none" d="
M 190.85 38
Q 180.3 39.4 178.9 39.75 181.05 37.55 181.05 32.7 181.05 23.9 169.2 17.65 157.35 11.4 140.7 11.4 135.2 11.4 126.1 13.55 117 15.7 116.35 15.7 114.85 15.7 109.7 11.45 103.4 6.3 99.15 4.25 94.8 2.15 85.4 0.9 78.85 0 76 0 54.05 0 38.9 12.5 32.3 17.95 29.15 24.35 25.95 30.75 27 36.5 19.8 36.7 14.55 41.4 8.95 46.35 8.95 53.6 8.95 55.55 9.45 57.85 10.2 61.15 11.7 62.65 5.05 64.1 2 66.5 0 68.1 0 69.5 0 75.9 33.95 80.45 67.95 85 116.05 85 189.9 85 220.7 75.9 233.2 72.2 232.55 68.35 231.85 64.5 218.35 62.15 218.6 61.3 218.9 59.7 219.15 58.1 219.15 57.35 219.15 49.35 210.85 43.65 202.55 38 190.85 38 Z"/>
</g>

<g id="nuage3_0_Layer0_0_FILL">
<path fill="#595970" fill-opacity="0.8" stroke="none" d="
M 180.1 61.85
Q 180.8 59.4 180.8 56.65 180.8 48.1 172.3 42.1 163.85 36.05 151.85 36.05 151.05 36.05 147.9 36.35 144.6 36.7 143.05 36.95 140.65 19.5 128.6 9.35 117.45 0 102.45 0 97.75 0 90.85 2 85.7 3.5 83.3 4.7 77.95 7.45 73.6 11.9 72.05 13.45 70.45 15.45
L 69.15 17.15 65.3 16.8
Q 55.2 16.4 49.4 24.05 44.8 30.1 44.8 37.3 44.8 38.9 45.45 42.5 36.65 43.3 30.6 45.5 23.55 48.05 19.15 52.9 17.4 54.9 16.7 57.6 16.45 58.65 15.05 59.55 14.55 59.85 12.2 61 9.7 62.15 8.5 64.4 7.7 65.95 7.7 67.35 7.7 68.35 8.05 69.35 2.15 70.5 0 72.85 1.15 74.3 7.4 75.95 13.95 77.65 21.75 78.35 45.05 80.5 73.6 81.6 96.96796875 82.4810546875 100.7 81.8 99.928125 81.505078125 99.65 81.5 100.55859375 81.5 101.45 81.5 159.4833984375 81.4240234375 184.3 76.5 195.2 74.35 193.4 72.05 191.55 69.6 176.25 67.8 179 65.85 180.1 61.85 Z"/>
</g>

<g id="collines_bg_0_Layer0_0_FILL">
<path fill="#1C1D26" fill-opacity="0.8" stroke="none" d="
M 933.75 -9.1
Q 921.8 -14.65 909.75 -12.25 896.35 -9.55 880.7 3.15 870.35 11.55 854.8 27.05 842.3 39.55 835.35 43.9 824.9 50.45 811.15 51.3 796.05 52.2 771.2 46.7 748 41.55 723.9 46.5 707.9 49.75 680.6 60.75 648.8 73.55 634.25 77.75 605.9 85.9 578.05 85.65 555.9 85.4 541.95 72.95 536.3 67.9 530.8 59.95 527.8 55.45 521.45 44.7 509.05 23.55 499 14.3 482.6 -0.85 456.9 -5 431.05 -9.2 408.35 -1.6 395.15 2.8 370.55 17.3 346.4 31.55 331.05 36.45 306.15 44.35 277 40.55 247.35 36.7 227.65 30.5 213.1 25.95 200.8 18.9 188.75 11.3 182.4 8 171.7 2.5 158.05 0.05 114.2 -7.75 66.25 34.6 51.25 47.85 37.75 64.5 30.95 72.8 27.15 78.5
L 24.35 245.25 980.9 241.6 980.9 29.9
Q 963.95 13.7 956.35 6.85 943.4 -4.65 933.75 -9.1 Z"/>
</g>

<g id="Layer0_0_MEMBER_1_MEMBER_0_FILL">
<path fill="#5B2F2F" stroke="none" d="
M 2091.25 858.5
L 2050.5 815 2024.25 834.75 2013.55 870.6 1993.45 847.05 1993.45 967.15 2083.45 1222.35 2220.75 1366.55 2342.65 1416 2297.55 1307.85 2112.25 903.05 2091.25 858.5
M 1391.2 1660.15
L 1396.1 1655.65 1410.95 1663.6 1420.2 1657.25 1381.8 1599.1 1381.8 1636.6 1391.2 1660.15
M 1261.5 1714.3
L 1275.65 1725 1289.6 1726.25 1238.7 1659.45 1238.7 1706 1231.8 1735.15 1234.35 1736.4 1238.7 1734.05 1252.25 1726.45 1261.5 1714.3
M 2370.75 1283.05
L 2368.75 1281.95 2368.75 1300.8 2399.75 1342.8 2406.6 1390.25 2486.5 1420.15 2404.25 1279.6 2383.95 1266.2 2370.75 1283.05
M 2756.35 1616.3
L 2756.35 1654.9 2773.05 1707.8 2778.1 1712.5 2787.7 1700.9 2822.1 1713.4 2756.35 1616.3 Z"/>

<path fill="#924F4F" stroke="none" d="
M 2050.5 815
L 2091.25 858.5 2067.15 804.15 1993.45 641.85 1993.45 847.05 2013.55 870.6 2024.25 834.75 2050.5 815
M 2368.75 1281.95
L 2370.75 1283.05 2383.95 1266.2 2404.25 1279.6 2368.75 1219.1 2368.75 1281.95 Z"/>

<path fill="#7E3C3D" stroke="none" d="
M 1379.8 1670.65
L 1391.2 1660.15 1381.8 1636.6 1381.8 1599.1 1343.4 1657.1 1354.05 1661.25 1370.9 1648.95 1379.8 1670.65
M 1188.7 1725
L 1198.3 1731.5 1210.6 1723.75 1231.8 1735.15 1238.7 1706 1238.7 1659.45 1188.7 1725
M 2325.45 1282.3
L 2317.3 1283.25 2297.55 1307.85 2342.65 1416 2353 1420.15 2397.35 1386.85 2406.6 1390.25 2399.75 1342.8 2368.75 1300.8 2368.75 1281.95 2346.65 1269.1 2325.45 1282.3
M 1934.75 836.55
L 1898.7 849.6 1676.65 1336.1 1610.7 1420.15 1689.5 1465.25 1827 1378.85 1959.2 1344.1 2061.75 1448.8 2220.75 1366.55 2083.45 1222.35 1993.45 967.15 1993.45 847.05 1965.4 814.3 1934.75 836.55
M 2756.35 1654.9
L 2756.35 1616.3 2704.4 1693.65 2727.05 1706.15 2747.15 1685.9 2771.05 1720.85 2778.1 1712.5 2773.05 1707.8 2756.35 1654.9 Z"/>

<path fill="#562929" stroke="none" d="
M 1396.1 1655.65
L 1391.2 1660.15 1399 1673.4 1388.5 1687.85 1384.3 1709.6 1422.55 1660.5 1420.2 1657.25 1410.95 1663.6 1396.1 1655.65
M 1275.65 1725
L 1261.5 1714.3 1252.25 1726.45 1238.7 1734.05 1234.35 1736.4 1231.8 1735.15 1227.1 1755.8 1240.85 1812.5 1293.75 1731.7 1289.6 1726.25 1275.65 1725
M 2342.65 1416
L 2220.75 1366.55 2256.8 1608.15 2503.7 1755.8 2342.65 1416
M 2406.6 1390.25
L 2412.75 1434.45 2547.15 1523.95 2486.5 1420.15 2406.6 1390.25
M 2787.7 1700.9
L 2778.1 1712.5 2808.7 1740.6 2836.25 1786.2 2886.95 1807.95 2822.1 1713.4 2787.7 1700.9
M 1206.25 1838.55
L 1202.8 1870.25 1240.85 1812.65 1206.25 1838.55 Z"/>

<path fill="#C45454" stroke="none" d="
M 2368.75 1281.95
L 2368.75 1219.1 2317.3 1283.25 2325.45 1282.3 2346.65 1269.1 2368.75 1281.95
M 1898.7 849.6
L 1934.75 836.55 1965.4 814.3 1993.45 847.05 1993.45 641.85 1898.7 849.6 Z"/>

<path fill="#683232" stroke="none" d="
M 2778.1 1712.5
L 2771.05 1720.85 2747.15 1685.9 2727.05 1706.15 2704.4 1693.65 2700.2 1699.65 2643.15 1637.7
Q 2614.2 1607.25 2585.4 1576.85
L 2566.35 1556.35 2547.15 1523.95 2412.75 1434.45 2406.6 1390.25 2397.35 1386.85 2353 1420.15 2342.65 1416 2503.7 1755.8 2256.8 1608.15 2220.75 1366.55 2061.75 1448.8 1959.2 1344.1 1827 1378.85 1689.5 1465.25 1610.7 1420.15 1422.55 1660.5 1384.3 1709.6 1388.5 1687.85 1399 1673.4 1391.2 1660.15 1379.8 1670.65 1370.9 1648.95 1354.05 1661.25 1343.4 1657.1 1341 1660.7
Q 1340.65 1661.25 1340.3 1661.8 1316.95 1696.75 1293.75 1731.7
L 1240.85 1812.5 1227.1 1755.8 1231.8 1735.15 1210.6 1723.75 1198.3 1731.5 1188.7 1725 855.75 2162.8 1009.75 2162.8 1029.3 2162.8 2679.4 2162.6 3126.4 2162.6 2886.95 1807.95 2836.25 1786.2 2808.7 1740.6 2778.1 1712.5
M 1202.8 1870.25
L 1206.25 1838.55 1240.85 1812.65 1202.8 1870.25 Z"/>
</g>

<g id="Layer0_0_MEMBER_1_MEMBER_1_FILL">
<path fill="#683232" stroke="none" d="
M 700.3 673.8
Q 791.7 668.8 875.9 661.35 968.6 653.15 1021.6 644.55 1081.95 634.7 1078.9 626 1065.3 625.35 1039.95 622.7 1004.4 619 973 613.7 879.55 598 857.65 574.75 811.35 525.4 725.45 508.9 689.85 502.05 642 499.6 608.1 497.85 551.1 497.85 532.45 497.85 507.65 497 481 496 468.55 495.65 425.1 494.4 397.95 498.15 361.75 503.15 328.35 519 291 536.75 248.95 571.8 207.4 606.55 97.15 617.7 66.3 620.8 14.6 623.2 -31.85 625.3 -44 627 -48.25 647.9 1.5 660.1 45.6 670.95 135.95 675.7 209.95 679.55 329.8 679.9 381.95 680.05 553.4 679 610.65 678.65 700.3 673.8 Z"/>
</g>

<g id="Layer0_0_MEMBER_2_FILL">
<path fill="url(#Gradient_3)" stroke="none" d="
M 106.75 388.7
Q 105.6 365.25 74.3 348.5 41.8 331.05 -4.2 331.05 -15.2 331.05 -23.1 369.7 -30.4 405.65 -31.7 456.5 -33 509.25 -26.9 547.8 -19.9 591.45 -5.45 599.85 9.05 608.25 177.6 612.25 325.75 615.8 542.9 615.1 750.8 614.4 906.8 610.25 1073.55 605.9 1085.75 599.85 1087.7 598.85 1092.15 554.95 1097.05 507.5 1099.45 458.45 1102.4 398.1 1100.05 362.4 1097.1 318.8 1086.45 318.8 1040.15 318.8 1007.4 335.5 976.8 351.1 974.8 372.8 899.15 374.4 844.95 411.45 808.7 436.35 795.65 467.85 764.3 462 728.15 462 649.2 462 593.35 489.75 562.95 504.8 549.05 523.3 527.8 523.45 508.15 526.6 508 526.5 507.95 526.4 477.05 494 433.5 494 409.45 494 389.3 503.85 347.75 493.95 298 493.95 285.7 493.95 273.85 494.55 266.3 452.95 213.5 422.25 167.3 395.4 106.75 388.7 Z"/>

<path fill="url(#Gradient_4)" stroke="none" d="
M 108.5 -11.5
Q 106.05 -13.15 88.1 -15 70.1 -16.9 48.75 -17.65 -6.95 -19.7 -14 -12.65 -17.75 -8.9 -18.6 10.25 -19.35 27.7 -17.55 50.4 -15.75 73.25 -12.35 88.6 -8.6 105.6 -4.4 105.6 13.25 105.6 25.75 95.1 38.25 84.65 38.25 69.85 38.25 66.8 37.7 63.9 45.25 63.8 50.55 58.45 55.95 53.05 55.95 45.35 55.95 41.25 54.45 37.85 62.25 37.35 68 33.35 72.8 30 74.05 25.6 79.25 26.85 85.15 26.85 98.85 26.85 108.5 20.2 118.25 13.65 118.25 4.35 118.25 -4.9 108.5 -11.5 Z"/>

<path fill="url(#Gradient_5)" stroke="none" d="
M 1080.15 -2.8
Q 1075.4 -12.65 1068.45 -12.65 1041.25 -12.65 1004.45 -10.7 951.35 -7.85 951.35 -2.9 951.35 8.65 967.55 16.8 983.85 25 1006.9 25 1007.1 25 1007.35 25 1012.5 32 1022.35 37.85 1043.2 50.25 1072.6 50.25 1079.55 50.25 1083 40.4 1086.1 31.6 1085.25 18.8 1084.4 6 1080.15 -2.8 Z"/>
</g>
</defs>

<g transform="matrix( 3.6226043701171875, 0, 0, 3.6226043701171875, -5.5,8.25) ">
<use xlink:href="#Layer0_0_MEMBER_0_MEMBER_0_FILL"/>
</g>

<g transform="matrix( 3.6226043701171875, 0, 0, 3.6226043701171875, -5.5,8.25) ">
<use xlink:href="#Layer0_0_MEMBER_0_MEMBER_1_FILL"/>
</g>

<g transform="matrix( -3.62249755859375, 0, 0, 3.62249755859375, 3583.15,-12.55) ">
<g transform="matrix( 1, 0, 0, 1, 0,0) ">
<use xlink:href="#nuage1_0_Layer0_0_MEMBER_0_FILL"/>
</g>
</g>

<g transform="matrix( -3.62249755859375, 0, 0, 3.62249755859375, 2829.8,399.65) ">
<g transform="matrix( 1, 0, 0, 1, 0,0) ">
<use xlink:href="#nuage2_0_Layer0_0_MEMBER_0_FILL"/>
</g>
</g>

<g transform="matrix( -3.62249755859375, 0, 0, 3.62249755859375, 546.6,359.8) ">
<g transform="matrix( 1, 0, 0, 1, 0,0) ">
<use xlink:href="#nuage3_0_Layer0_0_FILL"/>
</g>
</g>

<g transform="matrix( 5.578582763671875, 0, 0, 5.578582763671875, 776.6,598.2) ">
<g transform="matrix( 1, 0, 0, 1, 0,0) ">
<use xlink:href="#nuage1_0_Layer0_0_MEMBER_0_FILL"/>
</g>
</g>

<g transform="matrix( 2.8979644775390625, 0, 0, 2.8979644775390625, 3273.95,461.25) ">
<g transform="matrix( 1, 0, 0, 1, 0,0) ">
<use xlink:href="#nuage2_0_Layer0_0_MEMBER_0_FILL"/>
</g>
</g>

<g transform="matrix( 4.710205078125, 0, 0, 4.710205078125, 606.7,-106) ">
<g transform="matrix( 1, 0, 0, 1, 0,0) ">
<use xlink:href="#nuage3_0_Layer0_0_FILL"/>
</g>
</g>

<g transform="matrix( -4.408447265625, 0, 0, 5.001312255859375, 3998.3,955.2) ">
<g transform="matrix( 1, 0, 0, 1, 0,0) ">
<use xlink:href="#collines_bg_0_Layer0_0_FILL"/>
</g>
</g>

<g transform="matrix( 5.3285064697265625, -0.0217132568359375, 0.013031005859375, 3.1762847900390625, -635.65,1444.45) ">
<g transform="matrix( 1, 0, 0, 1, 0,0) ">
<use xlink:href="#collines_bg_0_Layer0_0_FILL"/>
</g>
</g>

<g transform="matrix( 1, 0, 0, 1, 0,0) ">
<use xlink:href="#Layer0_0_MEMBER_1_MEMBER_0_FILL"/>
</g>

<g transform="matrix( 3.6226043701171875, 0, 0, 3.6226043701171875, -5.5,8.25) ">
<use xlink:href="#Layer0_0_MEMBER_1_MEMBER_1_FILL"/>
</g>

<g transform="matrix( 3.6226654052734375, 0, 0, 3.6226654052734375, -5.5,8.25) ">
<use xlink:href="#Layer0_0_MEMBER_2_FILL"/>
</g>
</svg>
