
<svg xmlns="http://www.w3.org/2000/svg" version="1.1" xmlns:xlink="http://www.w3.org/1999/xlink" preserveAspectRatio="none" x="0px" y="0px" width="2160px" height="2160px" viewBox="0 0 2160 2160">
<defs>
<linearGradient id="Gradient_1" gradientUnits="userSpaceOnUse" x1="2211.95" y1="15.512499999999989" x2="2211.95" y2="332.08750000000003" spreadMethod="pad">
<stop  offset="0%" stop-color="#2B2E44"/>

<stop  offset="100%" stop-color="#3C4059"/>
</linearGradient>

<radialGradient id="Gradient_2" gradientUnits="userSpaceOnUse" cx="0" cy="0" r="139.24421498306492" fx="0" fy="0" gradientTransform="matrix( 0.9659288180579573, -0.258807879410882, 0.258807879410882, 0.9659288180579573, 361.7,114.2) " spreadMethod="pad">
<stop  offset="62.745098039215684%" stop-color="#A85252" stop-opacity="0"/>

<stop  offset="100%" stop-color="#A85252"/>
</radialGradient>

<radialGradient id="Gradient_3" gradientUnits="userSpaceOnUse" cx="0" cy="0" r="1537.5625000000002" fx="0" fy="0" gradientTransform="matrix( 0.9999999999999999, 0, 0, 0.5725864802243811, 983.3,1568.45) " spreadMethod="pad">
<stop  offset="0%" stop-color="#9B7371" stop-opacity="0.8470588235294118"/>

<stop  offset="100%" stop-color="#703F42" stop-opacity="0.8470588235294118"/>
</radialGradient>

<radialGradient id="Gradient_4" gradientUnits="userSpaceOnUse" cx="0" cy="0" r="339.07698333121937" fx="0" fy="0" gradientTransform="matrix( 0.7092784583525483, -0.7049284137535047, 0.5963984874858382, 0.6000481011748664, 230.75,169.7) " spreadMethod="pad">
<stop  offset="0%" stop-color="#884B4B" stop-opacity="0.8470588235294118"/>

<stop  offset="100%" stop-color="#5A3C3D" stop-opacity="0.8470588235294118"/>
</radialGradient>

<radialGradient id="Gradient_5" gradientUnits="userSpaceOnUse" cx="0" cy="0" r="430.6217645016329" fx="0" fy="0" gradientTransform="matrix( 0.927583166778105, 0.37361674040372367, -0.141075080286077, 0.7918492006427766, 2007.45,237.3) " spreadMethod="pad">
<stop  offset="0%" stop-color="#884B4B" stop-opacity="0.8470588235294118"/>

<stop  offset="100%" stop-color="#5A3C3D" stop-opacity="0.8470588235294118"/>
</radialGradient>

<g id="Layer0_0_MEMBER_0_MEMBER_0_FILL">
<path fill="url(#Gradient_1)" stroke="none" d="
M 1117.45 615.35
L 1117.45 -12.65 -48.7 -12.65 -48.7 615.35 1117.45 615.35 Z"/>
</g>

<g id="Layer0_0_MEMBER_0_MEMBER_1_FILL">
<path fill="url(#Gradient_2)" stroke="none" d="
M 353.3 128.6
Q 336.6 157.65 345.3 190.05 354 222.45 382.95 239.25 412.05 256.05 444.45 247.35 476.9 238.65 493.6 209.6 510.45 180.55 501.75 148.15 493.05 115.75 463.95 98.95 435 82.15 402.55 90.85 370.15 99.55 353.3 128.6 Z"/>
</g>

<g id="nuage1_0_Layer0_0_MEMBER_0_FILL">
<path fill="#595970" fill-opacity="0.8" stroke="none" d="
M 124.5 48.25
Q 125.55 46.9 126.55 44.55 127.65 41.95 127.65 40.4 127.65 34.05 121.85 28.9 114.6 22.45 101.6 22.45 92.75 23.5 91.6 23.75 90.75 12.75 80.45 6.15 70.85 0 57.35 0 43.25 0 33.15 6.9 23.1 13.8 23.1 23.45 23.1 25.9 24.05 28.95 24.9 31.7 25.75 32.7 18.1 33.1 13.25 36.9 8.6 40.5 8.6 45.3 8.6 46.3 9.1 48.4 4 49.45 1.6 51.2 0 52.35 0 53.2 0 56.9 13.55 59.1 29.3 61.65 66.6 62.8 100.6 62.5 118 59.6 133.05 57.05 133.05 53.2 133.05 51.8 130.6 50.3 127.95 48.7 124.5 48.25
M 74.95 43.65
L 76 43.2
Q 76.15 43.7 74.95 43.65 Z"/>
</g>

<g id="nuage2_0_Layer0_0_MEMBER_0_FILL">
<path fill="#595970" fill-opacity="0.8" stroke="none" d="
M 190.85 38
Q 180.3 39.4 178.9 39.75 181.05 37.55 181.05 32.7 181.05 23.9 169.2 17.65 157.35 11.4 140.7 11.4 135.2 11.4 126.1 13.55 117 15.7 116.35 15.7 114.85 15.7 109.7 11.45 103.4 6.3 99.15 4.25 94.8 2.15 85.4 0.9 78.85 0 76 0 54.05 0 38.9 12.5 32.3 17.95 29.15 24.35 25.95 30.75 27 36.5 19.8 36.7 14.55 41.4 8.95 46.35 8.95 53.6 8.95 55.55 9.45 57.85 10.2 61.15 11.7 62.65 5.05 64.1 2 66.5 0 68.1 0 69.5 0 75.9 33.95 80.45 67.95 85 116.05 85 189.9 85 220.7 75.9 233.2 72.2 232.55 68.35 231.85 64.5 218.35 62.15 218.6 61.3 218.9 59.7 219.15 58.1 219.15 57.35 219.15 49.35 210.85 43.65 202.55 38 190.85 38 Z"/>
</g>

<g id="nuage3_0_Layer0_0_FILL">
<path fill="#595970" fill-opacity="0.8" stroke="none" d="
M 180.1 61.85
Q 180.8 59.4 180.8 56.65 180.8 48.1 172.3 42.1 163.85 36.05 151.85 36.05 151.05 36.05 147.9 36.35 144.6 36.7 143.05 36.95 140.65 19.5 128.6 9.35 117.45 0 102.45 0 97.75 0 90.85 2 85.7 3.5 83.3 4.7 77.95 7.45 73.6 11.9 72.05 13.45 70.45 15.45
L 69.15 17.15 65.3 16.8
Q 55.2 16.4 49.4 24.05 44.8 30.1 44.8 37.3 44.8 38.9 45.45 42.5 36.65 43.3 30.6 45.5 23.55 48.05 19.15 52.9 17.4 54.9 16.7 57.6 16.45 58.65 15.05 59.55 14.55 59.85 12.2 61 9.7 62.15 8.5 64.4 7.7 65.95 7.7 67.35 7.7 68.35 8.05 69.35 2.15 70.5 0 72.85 1.15 74.3 7.4 75.95 13.95 77.65 21.75 78.35 45.05 80.5 73.6 81.6 96.96796875 82.4810546875 100.7 81.8 99.928125 81.505078125 99.65 81.5 100.55859375 81.5 101.45 81.5 159.4833984375 81.4240234375 184.3 76.5 195.2 74.35 193.4 72.05 191.55 69.6 176.25 67.8 179 65.85 180.1 61.85 Z"/>
</g>

<g id="collines_bg_0_Layer0_0_FILL">
<path fill="#1C1D26" fill-opacity="0.8" stroke="none" d="
M 933.75 -9.1
Q 921.8 -14.65 909.75 -12.25 896.35 -9.55 880.7 3.15 870.35 11.55 854.8 27.05 842.3 39.55 835.35 43.9 824.9 50.45 811.15 51.3 796.05 52.2 771.2 46.7 748 41.55 723.9 46.5 707.9 49.75 680.6 60.75 648.8 73.55 634.25 77.75 605.9 85.9 578.05 85.65 555.9 85.4 541.95 72.95 536.3 67.9 530.8 59.95 527.8 55.45 521.45 44.7 509.05 23.55 499 14.3 482.6 -0.85 456.9 -5 431.05 -9.2 408.35 -1.6 395.15 2.8 370.55 17.3 346.4 31.55 331.05 36.45 306.15 44.35 277 40.55 247.35 36.7 227.65 30.5 213.1 25.95 200.8 18.9 188.75 11.3 182.4 8 171.7 2.5 158.05 0.05 114.2 -7.75 66.25 34.6 51.25 47.85 37.75 64.5 30.95 72.8 27.15 78.5
L 24.35 245.25 980.9 241.6 980.9 29.9
Q 963.95 13.7 956.35 6.85 943.4 -4.65 933.75 -9.1 Z"/>
</g>

<g id="Layer0_0_MEMBER_1_MEMBER_0_FILL">
<path fill="#924F4F" stroke="none" d="
M 1156.1 787.6
L 1082.35 625.3 1082.35 830.55 1102.5 854.1 1113.15 818.25 1139.45 798.5 1180.2 841.95 1156.1 787.6
M 1459.7 1266.55
L 1472.9 1249.7 1493.2 1263.1 1457.7 1202.6 1457.7 1265.45 1459.7 1266.55 Z"/>

<path fill="#5B2F2F" stroke="none" d="
M 1431.6 1399.5
L 1386.5 1291.35 1201.2 886.5 1180.2 841.95 1139.45 798.5 1113.15 818.25 1102.5 854.1 1082.35 830.55 1082.35 950.65 1172.4 1205.85 1309.7 1350.05 1431.6 1399.5
M 1845.3 1599.85
L 1845.3 1638.4 1862 1691.3 1867.05 1696 1876.65 1684.4 1911.05 1696.9 1845.3 1599.85
M 364.55 1708.5
L 378.45 1709.8 327.6 1642.95 327.6 1689.5 320.7 1718.65 323.25 1719.9 327.6 1717.55 341.15 1709.95 350.4 1697.8 364.55 1708.5
M 499.85 1647.1
L 509.05 1640.75 470.65 1582.6 470.65 1620.1 480.1 1643.65 485 1639.15 499.85 1647.1
M 1472.9 1249.7
L 1459.7 1266.55 1457.7 1265.45 1457.7 1284.3 1488.65 1326.3 1495.55 1373.75 1575.4 1403.65 1493.2 1263.1 1472.9 1249.7 Z"/>

<path fill="#562929" stroke="none" d="
M 1876.65 1684.4
L 1867.05 1696 1897.65 1724.1 1925.2 1769.75 1975.9 1791.45 1911.05 1696.9 1876.65 1684.4
M 382.65 1715.2
L 378.45 1709.8 364.55 1708.5 350.4 1697.8 341.15 1709.95 327.6 1717.55 323.25 1719.9 320.7 1718.65 316 1739.3 329.75 1796 382.65 1715.2
M 509.05 1640.75
L 499.85 1647.1 485 1639.15 480.1 1643.65 487.9 1656.9 477.4 1671.4 473.2 1693.1 511.45 1644.05 509.05 1640.75
M 1431.6 1399.5
L 1309.7 1350.05 1345.75 1591.7 1592.65 1739.3 1431.6 1399.5
M 1495.55 1373.75
L 1501.7 1417.95 1636.1 1507.45 1575.4 1403.65 1495.55 1373.75
M 295.15 1822.1
L 291.7 1853.8 329.75 1796.2 295.15 1822.1 Z"/>

<path fill="#7E3C3D" stroke="none" d="
M 1845.3 1638.4
L 1845.3 1599.85 1793.35 1677.15 1815.95 1689.65 1836.1 1669.4 1860 1704.35 1867.05 1696 1862 1691.3 1845.3 1638.4
M 327.6 1689.5
L 327.6 1642.95 277.6 1708.5 287.2 1715.05 299.5 1707.25 320.7 1718.65 327.6 1689.5
M 432.25 1640.6
L 442.95 1644.75 459.8 1632.45 468.7 1654.15 480.1 1643.65 470.65 1620.1 470.65 1582.6 432.25 1640.6
M 1082.35 830.55
L 1054.3 797.75 1023.7 820.05 987.65 833.1 765.55 1319.6 699.65 1403.65 778.4 1448.75 915.9 1362.35 1048.15 1327.6 1150.65 1432.3 1309.7 1350.05 1172.4 1205.85 1082.35 950.65 1082.35 830.55
M 1486.3 1370.35
L 1495.55 1373.75 1488.65 1326.3 1457.7 1284.3 1457.7 1265.45 1435.6 1252.6 1414.4 1265.8 1406.25 1266.7 1386.5 1291.35 1431.6 1399.5 1441.95 1403.65 1486.3 1370.35 Z"/>

<path fill="#C45454" stroke="none" d="
M 1054.3 797.75
L 1082.35 830.55 1082.35 625.3 987.65 833.1 1023.7 820.05 1054.3 797.75
M 1406.25 1266.7
L 1414.4 1265.8 1435.6 1252.6 1457.7 1265.45 1457.7 1202.6 1406.25 1266.7 Z"/>

<path fill="#683232" stroke="none" d="
M 1495.55 1373.75
L 1486.3 1370.35 1441.95 1403.65 1431.6 1399.5 1592.65 1739.3 1345.75 1591.7 1309.7 1350.05 1150.65 1432.3 1048.15 1327.6 915.9 1362.35 778.4 1448.75 699.65 1403.65 511.45 1644.05 473.2 1693.1 477.4 1671.4 487.9 1656.9 480.1 1643.65 468.7 1654.15 459.8 1632.45 442.95 1644.75 432.25 1640.6 429.9 1644.2
Q 429.55 1644.75 429.2 1645.3 405.85 1680.25 382.65 1715.2
L 329.75 1796 316 1739.3 320.7 1718.65 299.5 1707.25 287.2 1715.05 277.6 1708.5 -55.35 2146.3 98.6 2146.3 118.2 2146.3 1768.35 2146.15 2215.4 2146.15 1975.9 1791.45 1925.2 1769.75 1897.65 1724.1 1867.05 1696 1860 1704.35 1836.1 1669.4 1815.95 1689.65 1793.35 1677.15 1789.15 1683.15 1732.1 1621.2
Q 1703.1 1590.75 1674.3 1560.35
L 1655.3 1539.85 1636.1 1507.45 1501.7 1417.95 1495.55 1373.75
M 291.7 1853.8
L 295.15 1822.1 329.75 1796.2 291.7 1853.8 Z"/>
</g>

<g id="Layer0_0_MEMBER_1_MEMBER_1_FILL">
<path fill="#683232" stroke="none" d="
M 700.3 673.8
Q 791.7 668.8 875.9 661.35 968.6 653.15 1021.6 644.55 1081.95 634.7 1078.9 626 1065.3 625.35 1039.95 622.7 1004.4 619 973 613.7 879.55 598 857.65 574.75 811.35 525.4 725.45 508.9 689.85 502.05 642 499.6 608.1 497.85 551.1 497.85 532.45 497.85 507.65 497 481 496 468.55 495.65 425.1 494.4 397.95 498.15 361.75 503.15 328.35 519 291 536.75 248.95 571.8 207.4 606.55 97.15 617.7 66.3 620.8 14.6 623.2 -31.85 625.3 -44 627 -48.25 647.9 1.5 660.1 45.6 670.95 135.95 675.7 209.95 679.55 329.8 679.9 381.95 680.05 553.4 679 610.65 678.65 700.3 673.8 Z"/>
</g>

<g id="Layer0_0_MEMBER_2_FILL">
<path fill="url(#Gradient_3)" stroke="none" d="
M 2030.15 1450.9
Q 1965.55 1493.8 1961.3 1553.5 1801.55 1557.9 1687.15 1659.85 1610.6 1728.4 1583.05 1815.05 1516.9 1798.95 1440.55 1798.95 1273.85 1798.95 1155.95 1875.3 1091.75 1916.7 1062.45 1967.55 1017.6 1968 976.1 1976.7 975.75 1976.35 975.65 1976.1 910.4 1887 818.5 1887 767.7 1887 725.15 1914.05 637.45 1886.85 532.4 1886.85 506.45 1886.85 481.45 1888.45 465.5 1774 354 1689.55 256.45 1615.7 128.65 1597.25 126.2 1532.75 60.1 1486.65 -8.5 1438.65 -105.6 1438.65 -128.85 1438.65 -145.55 1544.95 -160.95 1643.9 -163.7 1783.8 -166.4 1928.9 -153.55 2035 -138.75 2155.05 -108.25 2178.2 -77.65 2201.3 278.2 2212.3 591 2222.05 1049.45 2220.15 1488.4 2218.2 1817.75 2206.8 2169.8 2194.85 2195.55 2178.2 2199.65 2175.4 2209.05 2054.65 2219.4 1924.1 2224.45 1789.15 2230.7 1623.1 2225.75 1524.9 2219.5 1404.95 2197 1404.95 2099.3 1404.95 2030.15 1450.9 Z"/>

<path fill="url(#Gradient_4)" stroke="none" d="
M 272.55 -54.9
Q 218 -60.6 153.3 -62.9 -15.45 -69.1 -36.75 -47.8 -48.15 -36.4 -50.75 21.65 -53 74.5 -47.55 143.25 -42.1 212.45 -31.8 258.95 -20.4 310.5 -7.7 310.5 45.75 310.5 83.65 278.65 121.5 247 121.5 202.2 121.5 192.95 119.85 184.15 142.75 183.85 158.8 167.65 175.15 151.3 175.15 127.95 175.15 115.55 170.6 105.2 194.2 103.7 211.65 91.6 226.2 81.45 229.95 68.1 245.7 71.9 263.6 71.9 305.1 71.9 334.35 51.8 363.9 31.9 363.9 3.75 363.9 -24.3 334.35 -44.25 326.95 -49.3 272.55 -54.9 Z"/>

<path fill="url(#Gradient_5)" stroke="none" d="
M 2213.45 -18.45
Q 2202 -54.15 2185.25 -54.15 2119.65 -54.15 2031 -47.05 1903.05 -36.75 1903.05 -18.8 1903.05 23.05 1942.05 52.55 1981.35 82.25 2036.9 82.25 2037.4 82.25 2038 82.25 2050.4 107.65 2074.15 128.8 2124.4 173.75 2195.25 173.75 2211.95 173.75 2220.3 138.05 2227.75 106.2 2225.7 59.8 2223.7 13.45 2213.45 -18.45 Z"/>
</g>
</defs>

<g transform="matrix( 3.6227264404296875, 0, 0, 3.6227264404296875, -1033.95,-8.8) ">
<use xlink:href="#Layer0_0_MEMBER_0_MEMBER_0_FILL"/>
</g>

<g transform="matrix( 3.6227264404296875, 0, 0, 3.6227264404296875, -1033.95,-8.8) ">
<use xlink:href="#Layer0_0_MEMBER_0_MEMBER_1_FILL"/>
</g>

<g transform="matrix( -3.6227264404296875, 0, 0, 3.6227264404296875, 2555.35,-30.25) ">
<g transform="matrix( 1, 0, 0, 1, 0,0) ">
<use xlink:href="#nuage1_0_Layer0_0_MEMBER_0_FILL"/>
</g>
</g>

<g transform="matrix( -3.6227264404296875, 0, 0, 3.6227264404296875, 1801.9,382.55) ">
<g transform="matrix( 1, 0, 0, 1, 0,0) ">
<use xlink:href="#nuage2_0_Layer0_0_MEMBER_0_FILL"/>
</g>
</g>

<g transform="matrix( -3.6227264404296875, 0, 0, 3.6227264404296875, -481.35,342.7) ">
<g transform="matrix( 1, 0, 0, 1, 0,0) ">
<use xlink:href="#nuage3_0_Layer0_0_FILL"/>
</g>
</g>

<g transform="matrix( 5.5789031982421875, 0, 0, 5.5789031982421875, -251.35,581.1) ">
<g transform="matrix( 1, 0, 0, 1, 0,0) ">
<use xlink:href="#nuage1_0_Layer0_0_MEMBER_0_FILL"/>
</g>
</g>

<g transform="matrix( 2.89813232421875, 0, 0, 2.89813232421875, 2246,444.15) ">
<g transform="matrix( 1, 0, 0, 1, 0,0) ">
<use xlink:href="#nuage2_0_Layer0_0_MEMBER_0_FILL"/>
</g>
</g>

<g transform="matrix( 4.7105255126953125, 0, 0, 4.7105255126953125, -421.25,-123.7) ">
<g transform="matrix( 1, 0, 0, 1, 0,0) ">
<use xlink:href="#nuage3_0_Layer0_0_FILL"/>
</g>
</g>

<g transform="matrix( -4.4087677001953125, 0, 0, 5.0016326904296875, 2970.5,938.15) ">
<g transform="matrix( 1, 0, 0, 1, 0,0) ">
<use xlink:href="#collines_bg_0_Layer0_0_FILL"/>
</g>
</g>

<g transform="matrix( 5.3288421630859375, -0.0218505859375, 0.01318359375, 3.1764984130859375, -1664.2,1427.4) ">
<g transform="matrix( 1, 0, 0, 1, 0,0) ">
<use xlink:href="#collines_bg_0_Layer0_0_FILL"/>
</g>
</g>

<g transform="matrix( 1, 0, 0, 1, 0,0) ">
<use xlink:href="#Layer0_0_MEMBER_1_MEMBER_0_FILL"/>
</g>

<g transform="matrix( 3.6227264404296875, 0, 0, 3.6227264404296875, -919.2,-8.3) ">
<use xlink:href="#Layer0_0_MEMBER_1_MEMBER_1_FILL"/>
</g>

<g transform="matrix( 1, 0, 0, 1, 0,0) ">
<use xlink:href="#Layer0_0_MEMBER_2_FILL"/>
</g>
</svg>
